<?xml version="1.0" standalone="no"?>
<!DOCTYPE svg PUBLIC "-//W3C//DTD SVG 20010904//EN"
 "http://www.w3.org/TR/2001/REC-SVG-20010904/DTD/svg10.dtd">
<svg version="1.0" xmlns="http://www.w3.org/2000/svg"
 width="256.000000pt" height="256.000000pt" viewBox="0 0 256.000000 256.000000"
 preserveAspectRatio="xMidYMid meet">

<g transform="translate(0.000000,256.000000) scale(0.100000,-0.100000)"
fill="#000000" stroke="none">
<path d="M451 2266 c-8 -10 -11 -213 -9 -773 l3 -759 27 -41 c44 -66 87 -87
194 -91 l92 -4 4 -92 c3 -74 8 -99 27 -130 30 -47 84 -83 139 -92 40 -6 46 -4
78 27 l34 33 33 -32 c18 -18 39 -32 47 -32 8 0 29 14 47 32 l33 32 33 -32 c18
-18 39 -32 47 -32 8 0 29 14 47 32 l33 32 33 -32 c18 -18 39 -32 47 -32 8 0
29 14 47 32 l33 32 33 -32 c18 -18 39 -32 47 -32 8 0 29 14 47 32 l33 32 33
-32 34 -33 98 3 c80 2 100 6 109 21 17 26 -4 50 -51 60 -24 4 -51 20 -69 38
l-29 30 -5 217 c-5 207 -6 219 -29 255 -13 21 -41 50 -63 65 -35 22 -53 27
-134 30 l-94 4 0 79 0 79 50 -25 c196 -99 436 -59 595 100 206 205 205 526 -1
733 -156 156 -399 196 -594 97 l-50 -25 0 108 c0 109 -7 132 -39 132 -8 0 -30
-14 -48 -32 l-33 -32 -33 32 c-18 18 -39 32 -47 32 -8 0 -29 -14 -47 -32 l-33
-32 -33 32 c-18 18 -39 32 -47 32 -8 0 -29 -14 -47 -32 l-33 -32 -33 32 c-18
18 -39 32 -47 32 -8 0 -29 -14 -47 -32 l-33 -32 -33 32 c-18 18 -39 32 -47 32
-8 0 -29 -14 -47 -32 l-33 -32 -33 32 c-18 18 -39 32 -47 32 -8 0 -29 -14 -47
-32 l-33 -32 -33 32 c-36 35 -58 40 -76 18z m224 -116 c36 -38 51 -38 92 2
l33 32 33 -32 c18 -18 39 -32 47 -32 8 0 29 14 47 32 l33 32 33 -32 c18 -18
39 -32 47 -32 8 0 29 14 47 32 l33 32 33 -32 c18 -18 39 -32 47 -32 8 0 29 14
47 32 l33 32 33 -32 c35 -34 56 -39 75 -20 9 9 12 -6 12 -71 0 -81 -1 -83 -39
-129 -76 -91 -121 -216 -121 -336 0 -48 -2 -56 -14 -47 -9 8 -89 11 -271 9
-233 -3 -259 -5 -269 -20 -8 -13 -8 -23 0 -35 10 -16 36 -18 270 -21 250 -2
260 -2 276 18 16 20 16 19 23 -19 9 -56 60 -159 106 -213 l39 -47 0 -110 0
-110 -413 -3 c-375 -3 -415 -5 -440 -21 l-27 -17 0 592 c0 460 3 589 12 580
20 -20 42 -14 73 18 16 17 32 30 35 30 3 0 19 -13 35 -30z m1190 -124 c197
-52 335 -228 335 -426 0 -277 -260 -487 -532 -429 -239 51 -396 303 -334 534
63 237 304 382 531 321z m-1141 -1145 c29 -29 31 -37 35 -117 l3 -86 -86 3
c-81 4 -87 6 -118 37 -28 28 -33 39 -33 81 0 52 25 92 70 112 37 16 96 3 129
-30z m955 5 c39 -37 40 -49 43 -283 3 -174 2 -190 -13 -177 -23 21 -40 17 -76
-18 l-33 -32 -33 32 c-18 18 -39 32 -47 32 -8 0 -29 -14 -47 -32 l-33 -32 -33
32 c-18 18 -39 32 -47 32 -8 0 -29 -14 -47 -32 l-33 -32 -33 32 c-18 18 -39
32 -47 32 -8 0 -29 -14 -47 -32 l-33 -32 -33 32 c-18 18 -39 32 -47 32 -8 0
-33 -18 -55 -40 -36 -35 -45 -40 -66 -31 -13 5 -35 21 -49 36 -25 26 -25 29
-30 244 -4 186 -8 221 -23 244 l-18 28 425 -3 425 -3 30 -29z"/>
<path d="M692 1868 c-16 -16 -15 -43 2 -57 9 -8 89 -11 271 -9 233 3 259 5
269 21 8 12 8 22 0 35 -10 15 -36 17 -270 20 -194 2 -263 -1 -272 -10z"/>
<path d="M692 1228 c-16 -16 -15 -43 2 -57 9 -8 89 -11 271 -9 233 3 259 5
269 21 8 12 8 22 0 35 -10 15 -36 17 -270 20 -194 2 -263 -1 -272 -10z"/>
<path d="M1732 1948 c-7 -7 -12 -36 -12 -65 0 -52 0 -53 -30 -53 -19 0 -42
-11 -62 -29 -32 -28 -33 -32 -33 -105 0 -69 2 -78 28 -103 25 -26 35 -28 125
-33 l97 -5 0 -50 0 -50 -82 -3 c-81 -3 -82 -2 -95 25 -15 32 -49 41 -67 19
-32 -39 30 -126 89 -126 28 0 29 -2 32 -56 3 -64 23 -88 56 -68 12 8 18 27 20
68 3 55 4 56 32 56 19 0 42 11 62 29 32 28 33 32 33 105 0 69 -2 78 -28 103
-25 26 -35 28 -125 33 l-97 5 0 50 0 50 82 3 c81 3 82 2 95 -25 15 -32 49 -41
67 -19 32 39 -30 126 -90 126 -28 0 -29 1 -29 53 0 54 -12 77 -40 77 -9 0 -21
-5 -28 -12z"/>
<path d="M1012 748 c-6 -6 -12 -20 -12 -29 0 -34 24 -40 165 -37 119 3 139 5
149 21 8 12 8 22 0 35 -10 15 -31 17 -150 20 -100 2 -143 -1 -152 -10z"/>
<path d="M1412 748 c-16 -16 -15 -43 2 -57 22 -19 126 -10 140 12 8 12 8 22 0
35 -14 21 -122 30 -142 10z"/>
</g>
</svg>
