<?xml version="1.0" standalone="no"?>
<!DOCTYPE svg PUBLIC "-//W3C//DTD SVG 20010904//EN"
 "http://www.w3.org/TR/2001/REC-SVG-20010904/DTD/svg10.dtd">
<svg version="1.0" xmlns="http://www.w3.org/2000/svg"
 width="512.000000pt" height="512.000000pt" viewBox="0 0 512.000000 512.000000"
 preserveAspectRatio="xMidYMid meet">

<g transform="translate(0.000000,512.000000) scale(0.100000,-0.100000)"
fill="#000000" stroke="none">
<path d="M186 3934 c-9 -8 -16 -21 -16 -28 0 -33 23 -36 272 -36 l248 0 0
-895 0 -895 -265 0 c-254 0 -265 -1 -275 -20 -8 -14 -8 -26 0 -40 10 -19 21
-20 303 -20 215 0 296 3 305 12 8 8 12 54 12 141 l0 129 45 -50 c58 -64 153
-128 219 -147 28 -8 117 -21 198 -30 155 -15 265 -44 345 -91 23 -13 44 -24
47 -24 3 0 6 126 6 280 l0 280 -38 19 c-21 11 -86 55 -143 98 -139 104 -192
127 -281 121 -74 -6 -92 3 -86 43 4 30 52 43 139 37 78 -6 144 -38 264 -129
44 -33 99 -72 122 -85 l42 -25 73 26 c86 31 96 38 106 79 6 23 15 32 33 34 21
2 66 -37 270 -235 203 -198 256 -244 314 -274 89 -46 160 -63 244 -57 160 12
226 104 167 233 -14 31 -40 75 -58 97 -17 23 -214 207 -437 411 -224 203 -412
377 -419 387 -17 24 0 60 28 60 11 0 80 -56 157 -125 l137 -125 340 0 341 0
-140 141 c-311 313 -501 439 -735 484 -109 21 -345 21 -700 1 -146 -8 -339
-16 -430 -18 l-165 -3 -3 115 c-2 94 -6 117 -19 128 -13 9 -86 12 -284 12
-230 0 -270 -2 -283 -16z"/>
<path d="M2360 3006 c0 -2 75 -72 166 -155 l166 -151 940 0 c628 0 946 -3 959
-10 18 -10 19 -27 19 -578 0 -429 -3 -571 -12 -580 -9 -9 -297 -12 -1234 -12
-672 0 -1229 3 -1238 6 -14 5 -16 53 -16 434 l0 428 -112 110 c-86 84 -115
107 -121 96 -10 -18 -57 -42 -118 -60 l-49 -15 0 -644 0 -645 1610 0 1610 0 0
890 0 890 -1285 0 c-707 0 -1285 -2 -1285 -4z"/>
<path d="M2790 2614 c0 -3 23 -32 52 -63 58 -63 105 -154 114 -221 19 -140
-91 -247 -266 -258 -151 -8 -296 50 -426 171 l-74 69 0 -356 0 -356 590 0 590
0 0 69 c0 73 -5 81 -55 81 -40 0 -134 40 -146 62 -9 17 -7 24 9 41 l21 20 53
-23 c72 -31 176 -32 235 -2 79 41 104 103 62 157 -13 16 -70 50 -143 84 -93
44 -131 68 -163 103 -76 83 -77 165 -3 232 23 21 59 40 85 47 l45 11 0 69 0
69 -290 0 c-159 0 -290 -3 -290 -6z"/>
<path d="M3450 2550 c0 -68 1 -70 26 -70 34 0 116 -20 132 -33 7 -6 12 -22 10
-36 -3 -29 6 -28 -168 -15 -97 7 -147 -7 -175 -49 -14 -22 -14 -29 -2 -60 19
-45 62 -77 178 -131 53 -24 113 -59 134 -77 72 -63 85 -144 36 -221 -24 -38
-43 -53 -100 -80 l-71 -33 0 -72 0 -73 540 0 540 0 0 510 0 510 -540 0 -540 0
0 -70z"/>
<path d="M324 2426 c-48 -21 -74 -62 -74 -113 0 -86 48 -133 134 -133 37 0 51
6 79 33 46 43 56 92 31 143 -34 69 -107 99 -170 70z"/>
</g>
</svg>
