<?xml version="1.0" standalone="no"?>
<!DOCTYPE svg PUBLIC "-//W3C//DTD SVG 20010904//EN"
 "http://www.w3.org/TR/2001/REC-SVG-20010904/DTD/svg10.dtd">
<svg version="1.0" xmlns="http://www.w3.org/2000/svg"
 width="200.000000pt" height="200.000000pt" viewBox="0 0 200.000000 200.000000"
 preserveAspectRatio="xMidYMid meet">

<g transform="translate(0.000000,200.000000) scale(0.100000,-0.100000)"
fill="#000000" stroke="none">
<path d="M193 1619 c-53 -15 -67 -48 -71 -166 -6 -142 4 -210 33 -239 24 -24
28 -24 215 -24 l190 0 0 -305 c0 -257 2 -311 15 -336 17 -31 49 -49 91 -49 21
0 24 -5 24 -35 0 -52 34 -82 101 -90 30 -4 174 -5 321 -3 l268 3 27 28 28 27
3 380 3 380 190 0 c186 0 190 0 214 24 29 29 39 97 33 239 -4 121 -17 150 -75
166 -49 14 -1564 13 -1610 0z m1612 -214 l0 -150 -182 -3 -183 -2 0 30 0 30
89 0 c81 0 92 2 119 25 17 14 33 39 37 55 8 37 -18 88 -52 101 -16 6 -260 8
-650 7 l-625 -3 -19 -24 c-27 -33 -33 -67 -19 -102 19 -45 56 -59 155 -59 l85
0 0 -30 0 -30 -182 2 -183 3 -3 140 c-1 76 0 145 2 152 4 11 156 13 808 11
l803 -3 0 -150z m-1245 5 l0 -30 -90 0 c-88 0 -90 1 -90 23 0 13 3 27 7 30 3
4 44 7 90 7 l83 0 0 -30z m690 -399 c0 -351 -2 -431 -14 -440 -9 -8 -99 -11
-307 -9 l-294 3 -3 438 -2 437 310 0 310 0 0 -429z m118 -68 l-3 -498 -305 0
-305 0 -3 28 -3 27 251 0 252 0 29 29 29 29 0 441 0 441 30 0 30 0 -2 -497z
m250 465 l3 -28 -90 0 -91 0 0 30 0 31 88 -3 c87 -3 87 -3 90 -30z"/>
<path d="M937 1140 c-19 -15 -27 -32 -29 -63 -3 -38 -6 -42 -30 -45 -24 -3
-28 0 -28 23 0 15 9 34 21 43 27 23 16 52 -21 52 -26 0 -60 -26 -60 -46 0 -5
-9 -15 -20 -22 -28 -17 -26 -25 19 -71 35 -36 45 -41 84 -41 59 0 87 23 94 78
5 36 9 42 29 42 20 0 24 -5 24 -30 0 -19 -5 -30 -14 -30 -20 0 -27 -25 -11
-46 11 -15 18 -17 41 -9 16 6 34 21 41 34 6 14 19 28 27 33 24 14 20 29 -23
76 -33 36 -44 42 -78 42 -25 0 -50 -8 -66 -20z"/>
</g>
</svg>
