<?xml version="1.0" standalone="no"?>
<!DOCTYPE svg PUBLIC "-//W3C//DTD SVG 20010904//EN"
 "http://www.w3.org/TR/2001/REC-SVG-20010904/DTD/svg10.dtd">
<svg version="1.0" xmlns="http://www.w3.org/2000/svg"
 width="512.000000pt" height="512.000000pt" viewBox="0 0 512.000000 512.000000"
 preserveAspectRatio="xMidYMid meet">

<g transform="translate(0.000000,512.000000) scale(0.100000,-0.100000)"
fill="#000000" stroke="none">
<path d="M1263 4305 c-154 -42 -261 -155 -293 -310 -7 -34 -9 -528 -8 -1505
l3 -1455 23 -58 c45 -111 133 -195 246 -234 48 -17 110 -18 921 -18 963 0 919
-3 1025 66 67 43 119 108 152 189 21 52 23 72 26 339 2 199 0 292 -8 311 -24
59 -113 61 -139 4 -7 -17 -11 -114 -11 -287 0 -160 -4 -278 -11 -302 -15 -55
-100 -139 -156 -154 -30 -8 -287 -11 -895 -9 -945 3 -877 -2 -947 69 -72 71
-66 -67 -69 1547 -2 1046 1 1466 9 1495 15 57 99 141 156 156 30 8 287 11 895
9 945 -3 877 2 947 -69 62 -62 65 -75 71 -304 3 -115 9 -217 14 -227 13 -28
61 -42 95 -28 48 20 53 47 49 272 -3 179 -6 209 -25 257 -45 111 -122 189
-230 233 l-58 23 -865 2 c-723 2 -874 0 -917 -12z"/>
<path d="M1883 3988 c-32 -16 -48 -61 -34 -97 20 -46 44 -51 271 -51 227 0
251 5 271 51 15 37 -2 82 -37 98 -32 14 -440 14 -471 -1z"/>
<path d="M1983 3425 c-154 -42 -261 -155 -293 -311 -7 -34 -10 -223 -8 -545 3
-490 3 -494 26 -552 45 -111 133 -195 246 -234 48 -17 119 -18 1161 -18 1228
0 1158 -4 1265 66 67 43 119 108 152 189 23 55 23 58 23 575 0 475 -2 524 -18
571 -39 113 -123 201 -234 246 l-58 23 -1105 2 c-929 2 -1113 0 -1157 -12z
m2283 -167 c41 -22 90 -71 112 -112 15 -28 17 -80 20 -524 2 -345 -1 -505 -9
-535 -15 -57 -99 -141 -156 -156 -30 -8 -351 -11 -1135 -9 -1213 3 -1116 -2
-1187 69 -69 68 -66 43 -69 587 -2 340 1 505 8 534 15 53 91 134 145 153 34
12 209 14 1140 12 1019 -2 1102 -3 1131 -19z"/>
<path d="M3084 3188 c-29 -13 -44 -49 -44 -101 l0 -42 -75 -24 c-133 -41 -215
-139 -215 -256 0 -121 94 -210 253 -240 l37 -7 0 -104 c0 -77 -3 -104 -12
-104 -26 1 -97 39 -136 74 -46 42 -90 48 -122 16 -33 -33 -26 -83 16 -130 40
-44 156 -107 216 -116 36 -6 38 -8 38 -45 0 -52 17 -85 51 -100 58 -24 104 17
111 100 3 32 6 34 64 52 135 41 215 130 222 244 2 35 -1 79 -7 98 -23 69 -114
136 -207 152 -79 14 -74 5 -74 121 0 100 1 104 22 104 37 0 108 -40 123 -71
27 -52 75 -63 119 -28 56 44 17 148 -78 204 -24 14 -76 34 -115 43 l-71 17 0
42 c0 54 -16 88 -47 102 -29 13 -41 13 -69 -1z m-44 -408 c0 -114 -1 -115 -77
-80 -58 26 -72 58 -46 102 18 31 84 77 111 78 9 0 12 -27 12 -100z m255 -299
c43 -25 54 -64 29 -99 -26 -34 -81 -72 -105 -72 -17 0 -19 9 -19 101 l0 101
33 -7 c17 -4 45 -15 62 -24z"/>
<path d="M2080 1318 c-75 -52 -98 -125 -61 -200 30 -62 84 -92 157 -86 45 4
61 11 90 39 62 60 69 147 17 209 -53 64 -141 80 -203 38z"/>
</g>
</svg>
