<?xml version="1.0" standalone="no"?>
<!DOCTYPE svg PUBLIC "-//W3C//DTD SVG 20010904//EN"
 "http://www.w3.org/TR/2001/REC-SVG-20010904/DTD/svg10.dtd">
<svg version="1.0" xmlns="http://www.w3.org/2000/svg"
 width="1300.000000pt" height="1300.000000pt" viewBox="0 0 1300.000000 1300.000000"
 preserveAspectRatio="xMidYMid meet">

<g transform="translate(0.000000,1300.000000) scale(0.100000,-0.100000)"
fill="#000000" stroke="none">
<path d="M7615 9184 c-62 -10 -142 -37 -215 -71 -100 -49 -229 -176 -283 -280
-101 -193 -102 -415 -5 -613 33 -68 59 -102 127 -171 139 -138 275 -194 476
-193 92 1 123 5 190 28 209 71 359 218 430 423 125 359 -78 748 -445 855 -65
18 -217 31 -275 22z m230 -79 c209 -53 385 -221 442 -422 12 -39 17 -96 17
-173 -1 -140 -25 -221 -98 -324 -156 -218 -400 -310 -651 -246 -207 53 -377
223 -431 431 -22 84 -22 227 1 304 60 211 226 374 435 429 73 19 211 20 285 1z"/>
<path d="M7553 9041 c-197 -56 -354 -239 -382 -444 -36 -266 118 -512 372
-592 256 -81 536 39 646 277 23 48 44 114 51 156 45 271 -129 537 -395 607
-78 20 -214 18 -292 -4z m183 -151 c5 -30 11 -40 26 -40 33 0 92 -37 114 -72
35 -53 38 -74 15 -97 -37 -37 -72 -23 -99 41 -6 15 -20 32 -32 38 -20 11 -21
10 -18 -76 l3 -87 43 -12 c70 -21 109 -58 127 -120 13 -44 14 -62 5 -97 -16
-56 -73 -111 -134 -128 l-46 -13 0 -51 c0 -69 -9 -96 -30 -96 -23 0 -30 20
-30 88 l0 57 -50 18 c-67 24 -117 69 -130 118 -13 47 -6 75 21 90 32 17 59 1
80 -49 18 -43 52 -81 72 -82 4 0 7 42 7 94 l0 94 -48 16 c-27 9 -63 32 -82 51
-29 30 -34 43 -38 93 -3 41 1 68 12 90 21 41 76 82 120 89 33 5 36 9 36 38 0
36 6 45 32 45 13 0 19 -10 24 -40z"/>
<path d="M7636 8749 c-19 -15 -26 -30 -26 -54 0 -24 7 -39 26 -54 15 -12 31
-21 35 -21 5 0 9 34 9 75 0 41 -4 75 -9 75 -4 0 -20 -9 -35 -21z"/>
<path d="M7734 8474 c3 -9 6 -49 6 -90 l0 -75 30 16 c59 31 69 98 19 139 -35
29 -65 35 -55 10z"/>
<path d="M9295 9015 c-324 -74 -563 -308 -636 -621 -28 -123 -23 -309 11 -419
86 -273 282 -468 560 -556 66 -20 95 -23 230 -23 147 0 160 1 250 32 265 88
465 298 542 568 29 104 32 305 5 404 -80 299 -290 517 -577 600 -96 28 -297
36 -385 15z m350 -90 c254 -67 462 -276 530 -530 88 -333 -75 -692 -387 -847
-104 -51 -173 -69 -298 -75 -97 -5 -129 -2 -199 16 -225 56 -400 196 -496 396
-139 288 -89 608 129 833 113 118 240 189 391 218 86 17 247 12 330 -11z
m-520 -1435 c21 -22 37 -40 34 -40 -3 0 -23 18 -44 40 -21 22 -37 40 -34 40 3
0 23 -18 44 -40z"/>
<path d="M9330 8865 c-48 -9 -109 -31 -170 -61 -278 -137 -422 -446 -350 -753
52 -218 227 -407 444 -477 103 -34 273 -38 376 -10 212 58 398 234 461 436 72
232 28 456 -126 645 -86 104 -239 192 -384 219 -98 19 -150 19 -251 1z m162
-199 c3 -40 4 -41 54 -57 70 -23 101 -45 129 -94 32 -53 33 -99 3 -119 -46
-32 -81 -15 -108 52 -13 33 -44 62 -66 62 -8 0 -12 -26 -13 -80 -2 -119 0
-122 69 -143 101 -29 170 -113 170 -208 0 -90 -70 -178 -171 -213 l-63 -21 0
-77 c-1 -80 -11 -102 -42 -96 -17 3 -19 15 -22 89 l-3 86 -60 17 c-79 22 -148
88 -168 159 -13 45 -12 50 6 75 37 50 94 37 119 -26 27 -67 38 -84 66 -98 15
-8 29 -14 33 -14 3 0 5 52 5 115 0 101 -2 116 -17 121 -10 4 -46 19 -80 34
-86 39 -117 87 -117 179 0 108 47 168 155 198 58 16 59 17 59 53 0 42 14 60
40 53 14 -4 20 -16 22 -47z"/>
<path d="M9388 8504 c-66 -35 -65 -124 2 -159 16 -8 31 -15 35 -15 3 0 5 43 5
95 0 52 -3 95 -7 95 -5 -1 -20 -7 -35 -16z"/>
<path d="M9498 8060 l3 -111 39 22 c81 46 81 142 0 184 -16 8 -33 15 -37 15
-4 0 -7 -50 -5 -110z"/>
<path d="M8140 7647 c-145 -49 -266 -182 -299 -327 -24 -104 -6 -237 46 -331
74 -137 251 -239 413 -239 47 0 143 25 200 53 60 29 171 140 199 200 104 217
40 463 -155 592 -116 77 -272 97 -404 52z m232 -28 c209 -44 362 -259 328
-462 -26 -154 -105 -258 -246 -324 -53 -25 -70 -28 -165 -28 -101 0 -108 1
-181 38 -127 63 -205 169 -229 314 -10 61 -9 79 9 151 57 223 265 357 484 311z"/>
<path d="M8210 7576 c-153 -34 -261 -149 -290 -309 -13 -69 7 -176 45 -241 35
-60 105 -122 173 -154 49 -23 70 -27 152 -27 82 0 103 4 152 27 79 37 142 98
181 177 30 61 32 73 32 166 0 90 -3 106 -29 160 -53 108 -144 178 -265 204
-63 13 -80 13 -151 -3z m98 -109 c2 -17 9 -27 20 -27 53 0 119 -83 92 -115
-21 -25 -47 -17 -69 20 -29 50 -41 44 -41 -20 0 -51 2 -56 28 -65 52 -20 74
-34 88 -62 35 -68 1 -151 -73 -175 -41 -14 -42 -16 -45 -61 -2 -34 -7 -47 -18
-47 -11 0 -16 14 -20 49 -4 45 -8 50 -34 57 -64 17 -116 103 -83 136 22 23 51
8 70 -36 10 -22 24 -42 32 -45 12 -4 15 7 15 64 0 67 -1 69 -28 75 -69 15
-107 90 -79 158 15 34 59 67 90 67 8 0 17 14 21 31 7 37 30 34 34 -4z"/>
<path d="M8230 7360 c-14 -26 -5 -57 21 -70 15 -9 19 -7 20 7 0 10 1 33 2 51
2 24 -2 32 -15 32 -10 0 -22 -9 -28 -20z"/>
<path d="M8310 7130 c0 -33 4 -60 10 -60 19 0 50 40 50 64 0 22 -32 56 -52 56
-5 0 -8 -27 -8 -60z"/>
<path d="M2670 7373 c-67 -34 -70 -51 -70 -388 l0 -300 130 -130 130 -130 333
330 332 330 -330 -332 -330 -333 330 -332 330 -333 -332 330 -333 330 -130
-130 -130 -130 0 -661 0 -661 23 -34 c40 -59 34 -59 489 -59 l418 0 5 23 c3
12 4 607 3 1322 l-3 1300 -415 3 c-379 2 -418 1 -450 -15z m392 -2116 c45 -19
94 -84 103 -136 21 -126 -91 -236 -221 -216 -40 6 -57 16 -95 54 -38 38 -48
55 -54 95 -24 156 119 265 267 203z"/>
<path d="M3670 7313 l0 -77 75 74 c41 41 75 76 75 77 0 2 -34 3 -75 3 l-75 0
0 -77z"/>
<path d="M3753 7308 l-83 -83 0 -1243 0 -1242 103 0 c85 0 108 3 135 20 65 40
62 -33 62 1306 0 1109 -1 1219 -16 1251 -19 39 -46 60 -90 68 -26 6 -37 -2
-111 -77z m7 -1785 l75 -78 -77 75 c-72 69 -83 80 -75 80 1 0 36 -35 77 -77z"/>
<path d="M4293 7130 c-21 -13 -35 -31 -42 -57 -7 -25 -11 -345 -11 -965 l0
-928 29 -32 29 -33 244 -7 c243 -6 296 -12 418 -43 36 -9 337 -106 670 -216
620 -204 709 -229 865 -250 112 -14 369 -7 484 15 46 9 289 77 540 152 251 75
499 149 551 164 52 16 217 65 365 110 149 45 313 95 365 110 132 38 1000 299
1254 376 115 35 226 75 247 88 21 14 51 47 66 73 24 41 28 59 28 123 0 90 -25
142 -89 188 -65 47 -98 52 -324 45 l-206 -6 -45 -41 -46 -40 35 38 35 39 -190
-7 c-242 -8 -918 -32 -1415 -51 -212 -8 -537 -19 -722 -26 -336 -13 -338 -13
-320 -33 14 -16 12 -16 -15 3 -17 13 -36 20 -42 16 -23 -14 -59 22 -63 63 -2
21 1 40 7 41 5 2 125 6 265 9 254 7 255 7 301 34 172 101 195 324 46 455 -51
45 -104 61 -277 83 -701 87 -831 110 -1049 180 -79 25 -78 25 -55 -2 14 -17
11 -16 -11 4 -34 30 -385 170 -546 218 -335 99 -586 130 -1079 130 -245 0
-267 -2 -297 -20z m2002 -400 c10 -11 16 -20 13 -20 -3 0 -13 9 -23 20 -10 11
-16 20 -13 20 3 0 13 -9 23 -20z m80 -80 c10 -11 16 -20 13 -20 -3 0 -13 9
-23 20 -10 11 -16 20 -13 20 3 0 13 -9 23 -20z m305 16 c0 -2 -8 -10 -17 -17
-16 -13 -17 -12 -4 4 13 16 21 21 21 13z m-225 -96 c10 -11 16 -20 13 -20 -3
0 -13 9 -23 20 -10 11 -16 20 -13 20 3 0 13 -9 23 -20z m145 16 c0 -2 -8 -10
-17 -17 -16 -13 -17 -12 -4 4 13 16 21 21 21 13z m-40 -39 c0 -2 -19 -21 -42
-42 -24 -22 -35 -31 -26 -20 17 18 17 20 0 39 -17 21 -17 21 4 3 20 -16 22
-16 39 3 17 19 25 24 25 17z m-9 -74 c13 -16 12 -17 -3 -4 -10 7 -18 15 -18
17 0 8 8 3 21 -13z m-111 -47 c0 -2 -8 -10 -17 -17 -16 -13 -17 -12 -4 4 13
16 21 21 21 13z m175 -16 c10 -11 16 -20 13 -20 -3 0 -13 9 -23 20 -10 11 -16
20 -13 20 3 0 13 -9 23 -20z m-255 -64 c0 -2 -8 -10 -17 -17 -16 -13 -17 -12
-4 4 13 16 21 21 21 13z m335 -16 c10 -11 16 -20 13 -20 -3 0 -13 9 -23 20
-10 11 -16 20 -13 20 3 0 13 -9 23 -20z m-415 -64 c0 -2 -8 -10 -17 -17 -16
-13 -17 -12 -4 4 13 16 21 21 21 13z m495 -16 c10 -11 16 -20 13 -20 -3 0 -13
9 -23 20 -10 11 -16 20 -13 20 3 0 13 -9 23 -20z m-575 -64 c0 -2 -8 -10 -17
-17 -16 -13 -17 -12 -4 4 13 16 21 21 21 13z m655 -16 c10 -11 16 -20 13 -20
-3 0 -13 9 -23 20 -10 11 -16 20 -13 20 3 0 13 -9 23 -20z m-735 -64 c0 -2 -8
-10 -17 -17 -16 -13 -17 -12 -4 4 13 16 21 21 21 13z m815 -16 c10 -11 16 -20
13 -20 -3 0 -13 9 -23 20 -10 11 -16 20 -13 20 3 0 13 -9 23 -20z m-895 -64
c0 -2 -8 -10 -17 -17 -16 -13 -17 -12 -4 4 13 16 21 21 21 13z m-80 -80 c0 -2
-8 -10 -17 -17 -16 -13 -17 -12 -4 4 13 16 21 21 21 13z m3720 1 c0 -2 -17
-19 -37 -38 l-38 -34 34 38 c33 34 41 42 41 34z m-3800 -81 c0 -2 -8 -10 -17
-17 -16 -13 -17 -12 -4 4 13 16 21 21 21 13z m1295 -16 c10 -11 16 -20 13 -20
-3 0 -13 9 -23 20 -10 11 -16 20 -13 20 3 0 13 -9 23 -20z m2425 17 c0 -2 -17
-19 -37 -38 l-38 -34 34 38 c33 34 41 42 41 34z m-3800 -81 c0 -2 -8 -10 -17
-17 -16 -13 -17 -12 -4 4 13 16 21 21 21 13z m1455 -16 c10 -11 16 -20 13 -20
-3 0 -13 9 -23 20 -10 11 -16 20 -13 20 3 0 13 -9 23 -20z m2265 17 c0 -2 -17
-19 -37 -38 l-38 -34 34 38 c33 34 41 42 41 34z m-3800 -81 c0 -2 -8 -10 -17
-17 -16 -13 -17 -12 -4 4 13 16 21 21 21 13z m1615 -16 c10 -11 16 -20 13 -20
-3 0 -13 9 -23 20 -10 11 -16 20 -13 20 3 0 13 -9 23 -20z m2105 17 c0 -2 -17
-19 -37 -38 l-38 -34 34 38 c33 34 41 42 41 34z m-3800 -81 c0 -2 -8 -10 -17
-17 -16 -13 -17 -12 -4 4 13 16 21 21 21 13z m1775 -16 c10 -11 16 -20 13 -20
-3 0 -13 9 -23 20 -10 11 -16 20 -13 20 3 0 13 -9 23 -20z m1945 17 c0 -2 -17
-19 -37 -38 l-38 -34 34 38 c33 34 41 42 41 34z m-3800 -81 c0 -2 -8 -10 -17
-17 -16 -13 -17 -12 -4 4 13 16 21 21 21 13z m1935 -16 c10 -11 16 -20 13 -20
-3 0 -13 9 -23 20 -10 11 -16 20 -13 20 3 0 13 -9 23 -20z m1785 17 c0 -2 -17
-19 -37 -38 l-38 -34 34 38 c33 34 41 42 41 34z m-1715 -87 c10 -11 16 -20 13
-20 -3 0 -13 9 -23 20 -10 11 -16 20 -13 20 3 0 13 -9 23 -20z m-2085 6 c0 -2
-8 -10 -17 -17 -16 -13 -17 -12 -4 4 13 16 21 21 21 13z m3720 1 c0 -2 -15
-16 -32 -33 l-33 -29 29 33 c28 30 36 37 36 29z"/>
<path d="M9418 7139 c-81 -12 -159 -52 -228 -116 -99 -91 -150 -206 -150 -332
1 -136 42 -234 141 -332 56 -56 80 -72 147 -98 191 -73 401 -20 527 133 41 51
90 155 98 212 6 34 3 44 -17 63 l-23 22 -6 -61 c-14 -157 -142 -303 -303 -345
-210 -55 -431 65 -497 270 -27 80 -30 134 -13 214 28 132 104 230 223 287 43
21 96 38 128 41 55 6 55 6 38 27 l-18 21 25 -21 c14 -12 46 -24 73 -28 164
-21 319 -177 346 -346 5 -31 17 -60 30 -73 l21 -21 0 44 c-1 178 -128 354
-300 417 -67 25 -166 34 -242 22z"/>
<path d="M9393 7046 c-229 -75 -333 -328 -221 -538 39 -73 92 -121 177 -161
162 -77 363 -18 461 134 49 76 63 130 58 226 -7 144 -85 261 -215 320 -68 31
-194 41 -260 19z m277 -101 c52 -52 92 -95 90 -95 -3 0 -48 43 -100 95 -52 52
-92 95 -90 95 3 0 48 -43 100 -95z m-150 -5 c4 -15 16 -26 33 -31 55 -15 96
-73 77 -109 -17 -32 -48 -25 -67 15 -28 58 -43 53 -43 -14 l0 -58 46 -18 c76
-29 103 -95 67 -169 -16 -34 -63 -66 -96 -66 -12 0 -17 -13 -19 -52 -2 -39 -7
-53 -18 -53 -11 0 -16 14 -18 51 -3 49 -5 52 -33 58 -37 7 -86 54 -95 90 -13
54 47 79 68 29 14 -33 38 -63 50 -63 4 0 8 29 8 64 0 64 0 64 -34 76 -77 25
-107 106 -64 170 14 21 38 40 58 46 19 6 36 18 38 25 9 35 13 40 24 37 7 -3
15 -15 18 -28z m290 -135 c19 -19 32 -35 29 -35 -3 0 -20 16 -39 35 -19 19
-32 35 -29 35 3 0 20 -16 39 -35z"/>
<path d="M9450 6840 c-24 -24 -25 -43 -4 -64 26 -26 34 -18 34 34 0 28 -2 50
-5 50 -3 0 -14 -9 -25 -20z"/>
<path d="M9520 6599 c0 -45 3 -58 13 -53 49 28 61 68 29 97 -33 30 -42 21 -42
-44z"/>
<path d="M2600 6420 l0 -255 127 128 128 127 -128 127 -127 128 0 -255z"/>
</g>
</svg>
